<svg xmlns="http://www.w3.org/2000/svg" xmlns:xlink="http://www.w3.org/1999/xlink" width="80" zoomAndPan="magnify" viewBox="0 0 60 60" height="80" preserveAspectRatio="xMidYMid meet" version="1.0"><path fill="#f7931a" d="M 59.101562 37.253906 C 55.09375 53.320312 38.816406 63.101562 22.738281 59.09375 C 6.671875 55.089844 -3.109375 38.8125 0.898438 22.746094 C 4.902344 6.679688 21.183594 -3.101562 37.253906 0.90625 C 53.328125 4.910156 63.109375 21.1875 59.101562 37.253906 Z M 59.101562 37.253906 " fill-opacity="1" fill-rule="nonzero"/><path fill="#ffffff" d="M 43.230469 25.726562 C 43.828125 21.734375 40.789062 19.589844 36.628906 18.160156 L 37.980469 12.753906 L 34.6875 11.933594 L 33.375 17.195312 C 32.507812 16.980469 31.621094 16.777344 30.734375 16.574219 L 32.058594 11.277344 L 28.769531 10.457031 L 27.417969 15.863281 C 26.703125 15.699219 26 15.539062 25.316406 15.367188 L 25.320312 15.351562 L 20.78125 14.21875 L 19.90625 17.734375 C 19.90625 17.734375 22.347656 18.292969 22.296875 18.328125 C 23.628906 18.660156 23.871094 19.542969 23.828125 20.242188 L 22.292969 26.398438 C 22.386719 26.421875 22.503906 26.457031 22.636719 26.511719 C 22.527344 26.484375 22.410156 26.453125 22.289062 26.425781 L 20.136719 35.050781 C 19.972656 35.457031 19.558594 36.066406 18.625 35.832031 C 18.660156 35.882812 16.234375 35.238281 16.234375 35.238281 L 14.597656 39.003906 L 18.882812 40.070312 C 19.679688 40.273438 20.460938 40.480469 21.230469 40.675781 L 19.867188 46.144531 L 23.15625 46.964844 L 24.507812 41.554688 C 25.40625 41.800781 26.277344 42.023438 27.128906 42.234375 L 25.785156 47.621094 L 29.078125 48.441406 L 30.441406 42.984375 C 36.054688 44.042969 40.277344 43.617188 42.050781 38.539062 C 43.484375 34.453125 41.980469 32.097656 39.027344 30.558594 C 41.179688 30.0625 42.800781 28.648438 43.230469 25.726562 Z M 35.707031 36.269531 C 34.691406 40.359375 27.808594 38.148438 25.574219 37.59375 L 27.382812 30.351562 C 29.613281 30.90625 36.769531 32.007812 35.707031 36.269531 Z M 36.726562 25.667969 C 35.796875 29.386719 30.070312 27.496094 28.210938 27.035156 L 29.847656 20.460938 C 31.707031 20.925781 37.691406 21.789062 36.726562 25.667969 Z M 36.726562 25.667969 " fill-opacity="1" fill-rule="nonzero"/></svg>