<svg width="494" height="80" viewBox="0 0 494 80" fill="none" xmlns="http://www.w3.org/2000/svg">
<path d="M129.034 66.6238C124.414 66.6238 120.4 65.8071 116.994 64.1738C113.634 62.5405 110.834 60.4171 108.594 57.8038C106.4 55.1438 104.744 52.2971 103.624 49.2638C102.55 46.1838 102.014 43.2205 102.014 40.3738V38.8338C102.014 35.7071 102.574 32.6038 103.694 29.5238C104.814 26.3971 106.494 23.5738 108.734 21.0538C111.02 18.5338 113.844 16.5271 117.204 15.0338C120.564 13.4938 124.507 12.7238 129.034 12.7238C133.514 12.7238 137.434 13.4938 140.794 15.0338C144.154 16.5271 146.954 18.5338 149.194 21.0538C151.48 23.5738 153.184 26.3971 154.304 29.5238C155.424 32.6038 155.984 35.7071 155.984 38.8338V40.3738C155.984 43.2205 155.424 46.1838 154.304 49.2638C153.23 52.2971 151.574 55.1438 149.334 57.8038C147.14 60.4171 144.34 62.5405 140.934 64.1738C137.574 65.8071 133.607 66.6238 129.034 66.6238ZM129.034 57.3838C131.647 57.3838 133.98 56.9171 136.034 55.9838C138.134 55.0505 139.907 53.7671 141.354 52.1338C142.847 50.4538 143.967 48.5638 144.714 46.4638C145.507 44.3171 145.904 42.0538 145.904 39.6738C145.904 37.1071 145.507 34.7505 144.714 32.6038C143.967 30.4571 142.847 28.5905 141.354 27.0038C139.907 25.4171 138.134 24.1805 136.034 23.2938C133.934 22.4071 131.6 21.9638 129.034 21.9638C126.42 21.9638 124.064 22.4071 121.964 23.2938C119.864 24.1805 118.067 25.4171 116.574 27.0038C115.127 28.5905 114.007 30.4571 113.214 32.6038C112.467 34.7505 112.094 37.1071 112.094 39.6738C112.094 42.0538 112.467 44.3171 113.214 46.4638C114.007 48.5638 115.127 50.4538 116.574 52.1338C118.067 53.7671 119.864 55.0505 121.964 55.9838C124.064 56.9171 126.42 57.3838 129.034 57.3838ZM171.68 49.6138V41.0038H181.62C183.627 41.0038 185.307 40.6071 186.66 39.8138C188.06 39.0205 189.11 37.9238 189.81 36.5238C190.557 35.1238 190.93 33.5138 190.93 31.6938C190.93 29.8738 190.557 28.2638 189.81 26.8638C189.11 25.4638 188.06 24.3905 186.66 23.6438C185.307 22.8505 183.627 22.4538 181.62 22.4538H171.68V13.8438H180.78C185.073 13.8438 188.713 14.5438 191.7 15.9438C194.733 17.3438 197.043 19.3505 198.63 21.9638C200.217 24.5305 201.01 27.5871 201.01 31.1338V32.2538C201.01 35.8005 200.217 38.8805 198.63 41.4938C197.043 44.0605 194.733 46.0671 191.7 47.5138C188.713 48.9138 185.073 49.6138 180.78 49.6138H171.68ZM163.14 65.2938V13.8438H173.08V65.2938H163.14ZM219.422 65.2938V14.1938H233.002L245.812 44.7138H247.072L259.812 14.1938H273.602V65.2938H263.732V21.6838L264.992 21.8238L251.202 54.8638H241.052L227.192 21.8238L228.522 21.6838V65.2938H219.422ZM306.019 65.2938V54.0238H304.409V41.4938C304.409 39.3005 303.872 37.6671 302.799 36.5938C301.725 35.5205 300.069 34.9838 297.829 34.9838C296.662 34.9838 295.262 35.0071 293.629 35.0538C291.995 35.1005 290.339 35.1705 288.659 35.2638C287.025 35.3105 285.555 35.3805 284.249 35.4738V27.2138C285.322 27.1205 286.535 27.0271 287.889 26.9338C289.242 26.8405 290.619 26.7938 292.019 26.7938C293.465 26.7471 294.819 26.7238 296.079 26.7238C299.999 26.7238 303.242 27.2371 305.809 28.2638C308.422 29.2905 310.382 30.9005 311.689 33.0938C313.042 35.2871 313.719 38.1571 313.719 41.7038V65.2938H306.019ZM293.769 66.2738C291.015 66.2738 288.589 65.7838 286.489 64.8038C284.435 63.8238 282.825 62.4238 281.659 60.6038C280.539 58.7838 279.979 56.5905 279.979 54.0238C279.979 51.2238 280.655 48.9371 282.009 47.1638C283.409 45.3905 285.345 44.0605 287.819 43.1738C290.339 42.2871 293.279 41.8438 296.639 41.8438H305.459V47.6538H296.499C294.259 47.6538 292.532 48.2138 291.319 49.3338C290.152 50.4071 289.569 51.8071 289.569 53.5338C289.569 55.2605 290.152 56.6605 291.319 57.7338C292.532 58.8071 294.259 59.3438 296.499 59.3438C297.852 59.3438 299.089 59.1105 300.209 58.6438C301.375 58.1305 302.332 57.2905 303.079 56.1238C303.872 54.9105 304.315 53.2771 304.409 51.2238L306.789 53.9538C306.555 56.6138 305.902 58.8538 304.829 60.6738C303.802 62.4938 302.355 63.8938 300.489 64.8738C298.669 65.8071 296.429 66.2738 293.769 66.2738ZM323.511 65.2938V27.2838H333.241V65.2938H323.511ZM318.191 34.5638V27.2838H333.241V34.5638H318.191ZM327.081 22.7338C325.168 22.7338 323.744 22.2438 322.811 21.2638C321.924 20.2371 321.481 18.9538 321.481 17.4138C321.481 15.8738 321.924 14.6138 322.811 13.6338C323.744 12.6538 325.168 12.1638 327.081 12.1638C328.994 12.1638 330.394 12.6538 331.281 13.6338C332.168 14.6138 332.611 15.8738 332.611 17.4138C332.611 18.9538 332.168 20.2371 331.281 21.2638C330.394 22.2438 328.994 22.7338 327.081 22.7338ZM342.005 65.2938V27.2838H349.705V43.5938H349.005C349.005 39.7205 349.518 36.5005 350.545 33.9338C351.571 31.3205 353.088 29.3605 355.095 28.0538C357.148 26.7471 359.691 26.0938 362.725 26.0938H363.145C367.671 26.0938 371.101 27.5638 373.435 30.5038C375.768 33.3971 376.935 37.7371 376.935 43.5238V65.2938H367.205V42.6838C367.205 40.3505 366.528 38.4605 365.175 37.0138C363.868 35.5671 362.048 34.8438 359.715 34.8438C357.335 34.8438 355.398 35.5905 353.905 37.0838C352.458 38.5305 351.735 40.4905 351.735 42.9638V65.2938H342.005ZM384.945 65.2938V27.2838H392.645V43.5938H391.945C391.945 39.7205 392.459 36.5005 393.485 33.9338C394.512 31.3205 396.029 29.3605 398.035 28.0538C400.089 26.7471 402.632 26.0938 405.665 26.0938H406.085C410.612 26.0938 414.042 27.5638 416.375 30.5038C418.709 33.3971 419.875 37.7371 419.875 43.5238V65.2938H410.145V42.6838C410.145 40.3505 409.469 38.4605 408.115 37.0138C406.809 35.5671 404.989 34.8438 402.655 34.8438C400.275 34.8438 398.339 35.5905 396.845 37.0838C395.399 38.5305 394.675 40.4905 394.675 42.9638V65.2938H384.945ZM444.896 66.6238C441.629 66.6238 438.759 66.0638 436.286 64.9438C433.859 63.8238 431.829 62.3305 430.196 60.4638C428.609 58.5505 427.396 56.4271 426.556 54.0938C425.763 51.7605 425.366 49.3805 425.366 46.9538V45.6238C425.366 43.1038 425.763 40.6771 426.556 38.3438C427.396 35.9638 428.609 33.8638 430.196 32.0438C431.829 30.1771 433.836 28.7071 436.216 27.6338C438.596 26.5138 441.349 25.9538 444.476 25.9538C448.583 25.9538 452.013 26.8638 454.766 28.6838C457.566 30.4571 459.666 32.8138 461.066 35.7538C462.466 38.6471 463.166 41.7738 463.166 45.1338V48.6338H429.496V42.6838H457.076L454.066 45.6238C454.066 43.1971 453.716 41.1205 453.016 39.3938C452.316 37.6671 451.243 36.3371 449.796 35.4038C448.396 34.4705 446.623 34.0038 444.476 34.0038C442.329 34.0038 440.509 34.4938 439.016 35.4738C437.523 36.4538 436.379 37.8771 435.586 39.7438C434.839 41.5638 434.466 43.7571 434.466 46.3238C434.466 48.7038 434.839 50.8271 435.586 52.6938C436.333 54.5138 437.476 55.9605 439.016 57.0338C440.556 58.0605 442.516 58.5738 444.896 58.5738C447.276 58.5738 449.213 58.1071 450.706 57.1738C452.199 56.1938 453.156 55.0038 453.576 53.6038H462.536C461.976 56.2171 460.903 58.5038 459.316 60.4638C457.729 62.4238 455.699 63.9405 453.226 65.0138C450.799 66.0871 448.023 66.6238 444.896 66.6238ZM485.364 65.7838C481.864 65.7838 478.971 65.3405 476.684 64.4538C474.444 63.5205 472.764 61.9805 471.644 59.8338C470.524 57.6405 469.964 54.7005 469.964 51.0138L470.034 16.5738H479.134L479.064 51.6438C479.064 53.5105 479.554 54.9571 480.534 55.9838C481.561 56.9638 483.008 57.4538 484.874 57.4538H490.824V65.7838H485.364ZM463.944 34.4238V27.2838H490.824V34.4238H463.944Z" fill="black"/>
<mask id="mask0_14494_6162" style="mask-type:luminance" maskUnits="userSpaceOnUse" x="0" y="0" width="80" height="80">
<path d="M80 0H0V80H80V0Z" fill="white"/>
</mask>
<g mask="url(#mask0_14494_6162)">
<path d="M40 80C62.0914 80 80 62.0914 80 40C80 17.9086 62.0914 0 40 0C17.9086 0 0 17.9086 0 40C0 62.0914 17.9086 80 40 80Z" fill="#FF0420"/>
<path d="M28.3413 50.6313C25.9596 50.6313 24.0081 50.0709 22.487 48.95C20.9859 47.8092 20.2354 46.188 20.2354 44.0865C20.2354 43.6461 20.2854 43.1057 20.3855 42.4653C20.6457 41.0242 21.0159 39.2929 21.4963 37.2715C22.8573 31.7674 26.3699 29.0154 32.034 29.0154C33.5752 29.0154 34.9562 29.2756 36.1771 29.796C37.398 30.2963 38.3587 31.0569 39.0592 32.0776C39.7597 33.0784 40.11 34.2793 40.11 35.6803C40.11 36.1006 40.0599 36.631 39.9599 37.2715C39.6596 39.0528 39.2994 40.784 38.8791 42.4653C38.1785 45.2073 36.9677 47.2588 35.2464 48.6198C33.5251 49.9608 31.2234 50.6313 28.3413 50.6313ZM28.7616 46.3081C29.8824 46.3081 30.8331 45.9779 31.6137 45.3174C32.4143 44.6569 32.9847 43.6461 33.325 42.2851C33.7853 40.4038 34.1356 38.7626 34.3757 37.3615C34.4558 36.9412 34.4958 36.5109 34.4958 36.0706C34.4958 34.2492 33.5451 33.3386 31.6437 33.3386C30.5229 33.3386 29.5622 33.6688 28.7616 34.3293C27.981 34.9898 27.4206 36.0005 27.0804 37.3615C26.7201 38.7025 26.3599 40.3437 25.9996 42.2851C25.9195 42.6854 25.8795 43.1057 25.8795 43.5461C25.8795 45.3874 26.8402 46.3081 28.7616 46.3081Z" fill="white"/>
<path d="M41.4887 50.3312C41.2685 50.3312 41.0984 50.2611 40.9783 50.121C40.8783 49.9609 40.8482 49.7808 40.8883 49.5806L45.0313 30.0663C45.0713 29.8461 45.1814 29.666 45.3615 29.5259C45.5417 29.3858 45.7318 29.3157 45.932 29.3157H53.9178C56.1395 29.3157 57.9208 29.776 59.2618 30.6967C60.6228 31.6174 61.3033 32.9484 61.3033 34.6897C61.3033 35.19 61.2432 35.7104 61.1231 36.2508C60.6228 38.5525 59.612 40.2537 58.0909 41.3546C56.5898 42.4554 54.5283 43.0058 51.9064 43.0058H47.8534L46.4724 49.5806C46.4323 49.8008 46.3223 49.9809 46.1421 50.121C45.962 50.2611 45.7719 50.3312 45.5717 50.3312H41.4887ZM52.1165 38.8627C52.9571 38.8627 53.6877 38.6326 54.3081 38.1722C54.9486 37.7119 55.3689 37.0514 55.5691 36.1908C55.6291 35.8505 55.6591 35.5503 55.6591 35.2901C55.6591 34.7097 55.489 34.2693 55.1487 33.9691C54.8085 33.6489 54.2281 33.4888 53.4075 33.4888H49.8048L48.664 38.8627H52.1165Z" fill="white"/>
</g>
</svg>
